<?xml version="1.0" encoding="UTF-8"?>
<svg width="60px" height="60px" viewBox="0 0 60 60" version="1.1" xmlns="http://www.w3.org/2000/svg" xmlns:xlink="http://www.w3.org/1999/xlink">
    <!-- Generator: Sketch 52.5 (67469) - http://www.bohemiancoding.com/sketch -->
    <title>Artboard</title>
    <desc>Created with Sketch.</desc>
    <g id="Artboard" stroke="none" stroke-width="1" fill="none" fill-rule="evenodd">
        <path d="M29.9405512,38.8550099 C29.3290927,38.4779894 28.5186812,38.6115244 28.06372,39.1895609 L26.1293981,41.6471525 C25.8135067,42.0484984 25.3551816,42.3127702 24.8495788,42.3851006 C23.763391,42.5404882 22.7568952,41.7859256 22.6015075,40.6997378 L21.7776612,34.9409022 C21.6076456,33.7524624 20.7775528,32.7636586 19.636519,32.3903809 L19.7279986,32.3377775 L10.0517061,29.5164575 C8.99129195,29.2072722 8.38230065,28.0969924 8.69148599,27.0365782 C8.87866678,26.3946035 9.3743056,25.888652 10.0122901,25.6882923 L45.0851554,14.6736236 C46.1389785,14.3426694 47.2615622,14.9286704 47.5925164,15.9824935 C47.7039426,16.3372963 47.7142377,16.7161393 47.6222455,17.07647 L39.8545943,47.5021004 C39.581362,48.5723424 38.4922609,49.2184463 37.4220189,48.945214 C36.9500932,48.8247315 36.5383526,48.5361765 36.2640573,48.1336942 L29.9405512,38.8550099 Z" id="Combined-Shape" fill="#FFFFFF" fill-rule="nonzero"></path>
    </g>
</svg>