o 
v 1.7328244250403353 0.1603780804334985 -1.2225284436698196
v 0.4238828003655727 0.210105557525109 0.6009295244618963
v -0.4238828003655727 0.21541159611841415 -0.6009295244618963
v -1.7328244250403353 0.26513907321002467 1.2225284436698196
v 0.07281105278411491 3.4831683952835455 -0.0369209561058301
v 0.8705908515789993 1.9467538374889695 1.1596896306872495
v -0.7931491107035065 1.9571669380458703 -1.19895871149701
v -3.3731250974018003 2.9156621905775606 2.391263050357035
v 3.4888596918599326 2.7082354228818812 -2.4499496332112107
vn -0.7514151632140791 0.3906530935747301 0.5317568729818076
vn -0.5765184141306117 -0.001893767960698697 -0.8170820058686518
vn -0.816861253721149 0.024692402376113053 0.5763054252785297
vn -0.5764046214606625 0.003607629976974225 -0.8171565011856033
vn -0.7990681808434293 -0.1964470396272164 -0.5682416638022101
vn -0.5364887596745181 0.3345566729902265 -0.774759128124338
vn -0.8168613124297761 0.02469240415907927 0.5763054151207551
vn -0.5764046315912571 0.0036076310405562476 -0.8171564424575509
vn -0.6240947264627257 0.6435835191534353 0.4430643677894549
f 5//5 1//1 2//2
f 5//5 3//3 4//4
f 5//5 2//2 4//4
f 5//5 3//3 1//1
f 6//6 1//1 2//2
f 6//6 2//2 4//4
f 7//7 3//3 4//4
f 7//7 3//3 1//1
f 8//8 7//7 4//4
f 8//8 6//6 4//4
f 9//9 7//7 1//1
f 6//6 9//9 1//1
