o 
v 0.8949949130012811 0.2913725549446907 -1.7498432336447822
v 0.5412996058186874 0.2639179740447382 0.2770129054116087
v -0.5412996058186874 0.24860794094855337 -0.2770129054116087
v -0.8949949130012811 0.22115336004860084 1.7498432336447822
v -0.05305111344043855 2.998465290511573 0.027886580030004687
v 1.225616151944434 1.9749366971704845 0.6613519098030654
v -1.2914270188640868 1.9393408701687993 -0.6267581022808284
v -1.824259355131216 3.346342651661172 3.4793189769180906
v 1.7020207479314196 3.484674471327507 -3.4150636487757215
vn -0.4258812267054145 0.3786549206608208 0.8217333055992904
vn -0.8901120866862757 0.03184097339472031 -0.4546280778363839
vn -0.45529283940671594 -0.017860595452844324 0.8901626141218233
vn -0.8901316488132134 -0.012588174451200335 -0.4555295285889985
vn -0.959542463969892 -0.2240867191732004 -0.17047977983878043
vn -0.8503259863454736 0.3050895546146186 -0.42879604658127296
vn -0.4552928395477269 -0.017860588164011988 0.8901626141959464
vn -0.890131648768095 -0.012588176783359616 -0.4555295286127152
vn -0.3998149107930132 0.5012270691758012 0.7674109123469481
f 5//5 1//1 2//2
f 5//5 3//3 4//4
f 5//5 2//2 4//4
f 5//5 3//3 1//1
f 6//6 1//1 2//2
f 6//6 2//2 4//4
f 7//7 3//3 4//4
f 7//7 3//3 1//1
f 8//8 7//7 4//4
f 8//8 6//6 4//4
f 9//9 7//7 1//1
f 6//6 9//9 1//1
