o 
v 1.0259576554610956 0.29220109405647027 -2.095605596493802
v 0.7871775628960085 0.2834177240647339 0.38566560478095896
v -0.7871775628960085 0.24274647684514822 -0.38566560478095896
v -1.0259576554610956 0.23396310685341185 2.095605596493802
v -0.07331308780931087 3.047830201820189 0.002802501802771189
v 1.5214288623748726 1.940110753312171 0.7681574137320537
v -1.60760186310877 1.85927665171149 -0.7648633226342255
v -2.172432511304936 3.2226317810287024 4.278073597938603
v 2.013474705186707 3.341437274418032 -4.271997199419287
vn -0.41045647104146765 0.4063159904741364 0.8163533243373651
vn -0.8977039608041497 -0.025669799913581065 -0.4398507673421014
vn -0.43967370522663096 -0.012478928069689258 0.8980708630492227
vn -0.8977719015910373 -0.023192668177296726 -0.43984960910280396
vn -0.9470472098307391 -0.3075645240676812 -0.09222592163109666
vn -0.8376139805623135 0.36659611527962044 -0.4049815323856357
vn -0.43967370549243534 -0.012478917973288164 0.8980708630593834
vn -0.897771901699503 -0.023192664057293807 -0.43984960909865767
vn -0.3592143966480136 0.6164471187077893 0.7006838913795257
f 5//5 1//1 2//2
f 5//5 3//3 4//4
f 5//5 2//2 4//4
f 5//5 3//3 1//1
f 6//6 1//1 2//2
f 6//6 2//2 4//4
f 7//7 3//3 4//4
f 7//7 3//3 1//1
f 8//8 7//7 4//4
f 8//8 6//6 4//4
f 9//9 7//7 1//1
f 6//6 9//9 1//1
