o 
v 1.7202003231173835 0.2336097282579198 -0.8914019988867463
v 0.38367529065578754 0.24364982668617893 0.7406519212593669
v -0.38367529065578754 0.20227635781812484 -0.7406519212593669
v -1.7202003231173835 0.21231645624638396 0.8914019988867463
v -0.045131545172708516 2.993497917289682 -0.0540030455681281
v 0.7196271220142099 2.0153011152145246 1.4101215612175848
v -0.7767066549580606 1.934622843189286 -1.4784212085436028
v -3.4282629234109825 3.680973437282968 1.679337886265785
v 3.314922259387438 3.7227082499067903 -1.8149579059341272
vn -0.8523861207089124 0.2926029153905876 0.4333836846006098
vn -0.4596598024452615 -0.034010092990575586 -0.8874436390752483
vn -0.8878578746378378 -0.005495123250671776 0.4600849528462106
vn -0.45982950370412234 -0.024792766578888334 -0.8876610344157525
vn -0.7411939321001503 -0.2904701304147661 -0.6051930988712794
vn -0.4405353885307225 0.2987623099338576 -0.846563396841742
vn -0.8878578926802513 -0.005495122292085569 0.46008500964662624
vn -0.45982950366340747 -0.024792769078292747 -0.8876610343670344
vn -0.7907085833554616 0.46637375074850096 0.3965797115347791
f 5//5 1//1 2//2
f 5//5 3//3 4//4
f 5//5 2//2 4//4
f 5//5 3//3 1//1
f 6//6 1//1 2//2
f 6//6 2//2 4//4
f 7//7 3//3 4//4
f 7//7 3//3 1//1
f 8//8 7//7 4//4
f 8//8 6//6 4//4
f 9//9 7//7 1//1
f 6//6 9//9 1//1
