o 
v 1.1605104103656503 0.37005531029300226 -1.908128450918511
v 0.5911121616688741 0.3269465134862508 0.36055565136102724
v -0.5911121616688741 0.2708732296233288 -0.36055565136102724
v -1.1605104103656503 0.22776443281657738 1.908128450918511
v -0.1591926159815268 3.4090652851386984 0.01914372343537306
v 1.1317292930191305 2.2097537228997823 0.759556543340126
v -1.321386077240898 2.093401663658831 -0.7367493484058769
v -2.487661898438514 3.412295438372047 3.836296340757792
v 2.154379743024087 3.6968771933248967 -3.7962174629162524
vn -0.5000139969184576 0.34892399885887276 0.7926146665212247
vn -0.8535070968721838 -0.030012769604817576 -0.5202161009782084
vn -0.5193700775710617 -0.0318401350586234 0.8539560752102155
vn -0.8530191891824747 -0.040458976165610235 -0.520308850497051
vn -0.9367942199126424 -0.25463174500201496 -0.23995670687294535
vn -0.8293119977790866 0.2598465384491725 -0.4946932741487144
vn -0.5193700916699165 -0.03184013470689093 0.8539560172936824
vn -0.8530191892418575 -0.0404589750054441 -0.5203088504899098
vn -0.45729857299214216 0.5383482638900119 0.7078553347608941
f 5//5 1//1 2//2
f 5//5 3//3 4//4
f 5//5 2//2 4//4
f 5//5 3//3 1//1
f 6//6 1//1 2//2
f 6//6 2//2 4//4
f 7//7 3//3 4//4
f 7//7 3//3 1//1
f 8//8 7//7 4//4
f 8//8 6//6 4//4
f 9//9 7//7 1//1
f 6//6 9//9 1//1
