o 
v 1.9786803323850197 0.24480849221729176 -1.5788967227043187
v 0.30872788640607246 0.2301729575593591 0.38687140904907713
v -0.30872788640607246 0.23856263478097398 -0.38687140904907713
v -1.9786803323850197 0.22392710012304132 1.5788967227043187
v 0.006422463022307716 3.3485151735366827 0.028641434762934157
v 0.632753068340663 2.029586810203047 0.8048400945876542
v -0.6253130733644863 2.046680777604595 -0.7716609030521683
v -4.1497020024887386 2.8923233603535548 3.3403306443508916
v 4.16075570978812 2.9361742854202553 -3.291035843368132
vn -0.6822025847090635 0.4821848404437177 0.5496338675563082
vn -0.6237123204773888 0.01224870960036787 -0.781558032768187
vn -0.7816415602228094 -0.004124425488693685 0.6237142859611267
vn -0.6237245792368176 0.008474852495536464 -0.7815982831328323
vn -0.7533392625408472 -0.14667655458942047 -0.6410662527663747
vn -0.604470181466827 0.25157456268773504 -0.7558611205394828
vn -0.7816415602031437 -0.004124415953103498 0.6237142860488274
vn -0.6237245200082873 0.00847485075109516 -0.7815982764928774
vn -0.540540710174415 0.7176161001048139 0.43913881940514315
f 5//5 1//1 2//2
f 5//5 3//3 4//4
f 5//5 2//2 4//4
f 5//5 3//3 1//1
f 6//6 1//1 2//2
f 6//6 2//2 4//4
f 7//7 3//3 4//4
f 7//7 3//3 1//1
f 8//8 7//7 4//4
f 8//8 6//6 4//4
f 9//9 7//7 1//1
f 6//6 9//9 1//1
