o 
v 0.7962149127161868 0.1592590167455202 -1.624863598685817
v 0.747844123367102 0.16982450477379876 0.36775990534665226
v -0.747844123367102 0.25184297272462963 -0.36775990534665226
v -0.7962149127161868 0.26240846075290825 1.624863598685817
v 0.16840495463475505 3.17746353632112 -0.011641943888373665
v 1.7530092177326693 1.523214450011169 0.8173525531715361
v -1.5935933419950343 1.7067307779548582 -0.8283730761975877
v -1.462188757311 3.1714271942998398 3.3035165646675506
v 1.7863682764034747 2.961002316228396 -3.325927305368262
vn -0.3815460806603154 0.4211377522909784 0.8228399192943805
vn -0.8928011717626342 0.09424526713683909 -0.44048145399990163
vn -0.4398507556174358 0.028491275562607103 0.897618808721745
vn -0.8962807888286554 0.049148995511348874 -0.4407551356347046
vn -0.9811495819831395 -0.1919002769257458 -0.022799786016191037
vn -0.7693637487113311 0.5036260408170466 -0.39298884139727785
vn -0.439850755682175 0.028491274422158305 0.8976188087262205
vn -0.8962807889140433 0.04914899400715181 -0.44075513562880164
vn -0.33623729719239726 0.5727351217256238 0.7476088245197221
f 5//5 1//1 2//2
f 5//5 3//3 4//4
f 5//5 2//2 4//4
f 5//5 3//3 1//1
f 6//6 1//1 2//2
f 6//6 2//2 4//4
f 7//7 3//3 4//4
f 7//7 3//3 1//1
f 8//8 7//7 4//4
f 8//8 6//6 4//4
f 9//9 7//7 1//1
f 6//6 9//9 1//1
