o 
v 1.3081911788300937 0.3679658171738425 -1.9124559746708392
v 0.20981135627916553 0.27408829812966184 0.14393617862565466
v -0.20981135627916553 0.258394170720709 -0.14393617862565466
v -1.3081911788300937 0.16451665167652835 1.9124559746708392
v -0.14204664837999692 3.0907450587616725 0.05307170567782222
v 0.35705213074778186 1.8918429919204693 0.3307036170766146
v -0.5189102591379424 1.8590815017987774 -0.27022991319515494
v -2.743937381275468 2.59913950213789 3.872569270005297
v 2.488827334044907 3.006037833132518 -3.777254628678059
vn -0.5239717591538698 0.42019789163481175 0.7408692943308793
vn -0.8244583683897999 -0.025816558499713985 -0.5653334548878509
vn -0.5640431988456899 -0.043859839690533205 0.8245796202124452
vn -0.8242168019839452 -0.030826176179889198 -0.5654346787746066
vn -0.8728563180666428 -0.12426066053900366 -0.47189101721105076
vn -0.8232037249151568 0.10815533759963636 -0.5573491933105428
vn -0.5640431875183772 -0.043859847434313835 0.8245796786619863
vn -0.8242168604738161 -0.030826179743531072 -0.5654346678602777
vn -0.45038529392440557 0.640939509331098 0.6215703172078447
f 5//5 1//1 2//2
f 5//5 3//3 4//4
f 5//5 2//2 4//4
f 5//5 3//3 1//1
f 6//6 1//1 2//2
f 6//6 2//2 4//4
f 7//7 3//3 4//4
f 7//7 3//3 1//1
f 8//8 7//7 4//4
f 8//8 6//6 4//4
f 9//9 7//7 1//1
f 6//6 9//9 1//1
