o 
v 1.0865196935872174 0.2372044335133863 -1.8543709653448175
v 0.7809278439751783 0.27768987129742656 0.45754910208619914
v -0.7809278439751783 0.2762969415804701 -0.45754910208619914
v -1.0865196935872174 0.31678237936451037 1.8543709653448175
v 0.026825390556055973 3.36217817930167 -0.05048073984110349
v 1.3981505974190211 1.6587619181078606 0.7895610081039297
v -1.374143401424969 1.6562894677240498 -0.8347383937884989
v -1.9399987973168487 3.4084862358220183 3.3063513762678935
v 1.993202486651866 3.264450154081126 -3.406471506645701
vn -0.48656788177578447 0.2725501388429283 0.8300410718549169
vn -0.862312039606856 -0.04630795618064799 -0.5042553429225116
vn -0.5054510048727161 0.01850990133136837 0.8626567772243037
vn -0.8628115265532346 -0.0007694939731769691 -0.5055251163862786
vn -0.9592583887618771 -0.25467088050367065 -0.12233593935836093
vn -0.8087948198666819 0.33815361937282273 -0.4811476785048098
vn -0.5054509472301145 0.018509897668087028 0.8626567622200357
vn -0.862811526569441 -0.0007694958370841384 -0.5055251163557808
vn -0.4350113382962311 0.5105583482944743 0.7416840706829981
f 5//5 1//1 2//2
f 5//5 3//3 4//4
f 5//5 2//2 4//4
f 5//5 3//3 1//1
f 6//6 1//1 2//2
f 6//6 2//2 4//4
f 7//7 3//3 4//4
f 7//7 3//3 1//1
f 8//8 7//7 4//4
f 8//8 6//6 4//4
f 9//9 7//7 1//1
f 6//6 9//9 1//1
