o 
v 1.8000256640043342 0.33692697025057683 -0.8895481275872972
v 0.34416092197691295 0.3191158212874176 0.6972538129084077
v -0.34416092197691295 0.27959841273207536 -0.6972538129084077
v -1.8000256640043342 0.26178726376891615 0.8895481275872972
v -0.08246790137564106 3.2407492618772675 -0.04264712222960121
v 0.653211866524977 1.7448316471592575 1.382841862727084
v -0.7320357427965881 1.6653028682766513 -1.4236045283205034
v -3.347785798467568 2.789705621147235 1.581878746190677
v 3.204307660819716 2.9264598878269763 -1.6560764591368546
vn -0.8549345210234732 0.31374358942885405 0.413100481991378
vn -0.4425315848026813 -0.023168356804417967 -0.8964536227007597
vn -0.8963453502312517 -0.018708374975071874 0.44296169122144635
vn -0.44247002255551304 -0.02540274513336098 -0.896423418620281
vn -0.7082416195644425 -0.26874554714024573 -0.6528166487702372
vn -0.4206863416468526 0.35128418582633447 -0.8364343397695306
vn -0.8963453500210781 -0.01870838247136004 0.44296169133013474
vn -0.44247002231154 -0.025402753835175075 -0.8964234184941138
vn -0.7690131776315046 0.524985507585746 0.3647039476031565
f 5//5 1//1 2//2
f 5//5 3//3 4//4
f 5//5 2//2 4//4
f 5//5 3//3 1//1
f 6//6 1//1 2//2
f 6//6 2//2 4//4
f 7//7 3//3 4//4
f 7//7 3//3 1//1
f 8//8 7//7 4//4
f 8//8 6//6 4//4
f 9//9 7//7 1//1
f 6//6 9//9 1//1
