o 
v 1.7653144031409511 0.16887410444940443 -1.5001461789779482
v 0.42958040401893144 0.26200349871178386 0.5068768660893306
v -0.42958040401893144 0.2986922907472763 -0.5068768660893306
v -1.7653144031409511 0.39182168500965575 1.5001461789779482
v 0.15105285704361726 3.047516597208918 -0.02787128349299401
v 0.9955436112650103 1.9532924727837206 1.047203282514167
v -0.8086940692708928 2.0303389353603327 -1.0816795357766285
v -3.662861160622619 3.5975117655981976 3.224342743352701
v 3.998603377239116 3.11371551399982 -3.2862916974011673
vn -0.6433809259928546 0.5176506116361618 0.5640025123860839
vn -0.6454177022357923 0.04238970678062888 -0.7626526821953791
vn -0.761137726407956 0.04806334989913641 0.6468070236942067
vn -0.646296196415606 0.027598822743127978 -0.7625873702425
vn -0.821978824861859 -0.18555800210371337 -0.538441297751009
vn -0.5925472251022824 0.35398329283062463 -0.7235908243965125
vn -0.7611376676021885 0.04806333730998006 0.6468070286686637
vn -0.646296196409721 0.02759882285093527 -0.7625873702435858
vn -0.5350721295389796 0.6961133183741977 0.4786690737023079
f 5//5 1//1 2//2
f 5//5 3//3 4//4
f 5//5 2//2 4//4
f 5//5 3//3 1//1
f 6//6 1//1 2//2
f 6//6 2//2 4//4
f 7//7 3//3 4//4
f 7//7 3//3 1//1
f 8//8 7//7 4//4
f 8//8 6//6 4//4
f 9//9 7//7 1//1
f 6//6 9//9 1//1
