o 
v 0.8865460489321786 0.2412900227606606 -1.6578268535788627
v 0.7599779263194338 0.27350162795857713 0.40734703402551353
v -0.7599779263194338 0.32649144895509086 -0.40734703402551353
v -0.8865460489321786 0.3587030541530074 1.6578268535788627
v 0.12721621246404774 3.3399350478546297 -0.03961883423196767
v 1.577295579233839 1.8445223659874892 0.7887864955305315
v -1.4436167187285616 1.9498396366419466 -0.830417986612485
v -1.8779979999620955 3.009024352740153 3.6799395844528826
v 2.093728019547663 2.746019180943276 -3.7471241965339503
vn -0.4083829003332896 0.45472197366998685 0.7914868178796972
vn -0.8810546268757801 0.028391618331221023 -0.4721616552702941
vn -0.47134037028588 0.03121185239123929 0.8813989116061668
vn -0.8809598746155674 0.03071266989454218 -0.4721931776262034
vn -0.9761353511659345 -0.20966989999747593 -0.05655399644036302
vn -0.7749744871956051 0.46241023415679083 -0.4308031696882677
vn -0.4713403702870958 0.031211852362187334 0.8813989116065455
vn -0.8809598747191836 0.03071266741854567 -0.4721931775939343
vn -0.3216115113064223 0.6931128683540241 0.6451051002318557
f 5//5 1//1 2//2
f 5//5 3//3 4//4
f 5//5 2//2 4//4
f 5//5 3//3 1//1
f 6//6 1//1 2//2
f 6//6 2//2 4//4
f 7//7 3//3 4//4
f 7//7 3//3 1//1
f 8//8 7//7 4//4
f 8//8 6//6 4//4
f 9//9 7//7 1//1
f 6//6 9//9 1//1
