o 
v 1.191707615627028 0.3246017438987443 -1.9894847760156151
v 0.6061392857338362 0.31582864972561653 0.363435254500334
v -0.6061392857338362 0.2706630842425096 -0.363435254500334
v -1.191707615627028 0.26188999006938185 1.9894847760156151
v -0.101069076308786 3.2343326147763407 -0.014186805660770328
v 1.2465321502679356 1.9908062686766095 0.7734315789490941
v -1.3598668939994543 1.893700298580606 -0.7893400847221155
v -2.3267167884208284 3.092889833039595 3.7065493347672884
v 2.130269903653244 3.2101608182162016 -3.734124077494201
vn -0.4846879223505014 0.3872270721895959 0.7843040065178449
vn -0.8577748215312326 -0.008854703123038902 -0.5139493634833935
vn -0.5138198925330988 -0.013519487989966949 0.8577915781510805
vn -0.8572103838211109 -0.031936879419072056 -0.5139750571513111
vn -0.9374577838823298 -0.2574747929239456 -0.23426397732551577
vn -0.818346572432624 0.3078201468029805 -0.48534066889871064
vn -0.5138198345353435 -0.013519492276780065 0.8577915636902176
vn -0.8572103982080925 -0.031936882693465084 -0.5139751149549019
vn -0.43964390716523194 0.5650944440106547 0.6981271240604414
f 5//5 1//1 2//2
f 5//5 3//3 4//4
f 5//5 2//2 4//4
f 5//5 3//3 1//1
f 6//6 1//1 2//2
f 6//6 2//2 4//4
f 7//7 3//3 4//4
f 7//7 3//3 1//1
f 8//8 7//7 4//4
f 8//8 6//6 4//4
f 9//9 7//7 1//1
f 6//6 9//9 1//1
