o 
v 1.8908412411196802 0.20111169615377325 -0.9595760384577641
v 0.28707271964499625 0.2378371162738656 0.5673744360456615
v -0.28707271964499625 0.28981717013382646 -0.5673744360456615
v -1.8908412411196802 0.32654259025391885 0.9595760384577641
v 0.13129230594538005 3.188674160619474 0.06755047633026856
v 0.6531505134342683 2.0521366721255845 1.170151453233895
v -0.4879636108450445 2.155447034938449 -1.0851620559262884
v -3.637245687698478 3.1850698978791367 1.9741410932330332
v 3.8883021874816626 2.9354624273919967 -1.844971405610825
vn -0.8105413654992315 0.39936829045780653 0.4284012309342934
vn -0.4511654062190706 0.039174078827309194 -0.8915801793956719
vn -0.8913510939071181 0.029564344756862666 0.4523484748301243
vn -0.45109126367365115 0.040839387925497614 -0.8915429221314235
vn -0.6828907095880885 -0.15690169939111379 -0.7134718848594204
vn -0.4206236311953621 0.31812811710478334 -0.8496294439025996
vn -0.8913511124168239 0.02956434530327142 0.45234853149450693
vn -0.451091263662459 0.0408393881748279 -0.891542922125665
vn -0.6861679828441054 0.6229075333973317 0.3757121910919285
f 5//5 1//1 2//2
f 5//5 3//3 4//4
f 5//5 2//2 4//4
f 5//5 3//3 1//1
f 6//6 1//1 2//2
f 6//6 2//2 4//4
f 7//7 3//3 4//4
f 7//7 3//3 1//1
f 8//8 7//7 4//4
f 8//8 6//6 4//4
f 9//9 7//7 1//1
f 6//6 9//9 1//1
