o 
v 1.6918498271647897 0.24521463105149938 -1.3488186846044514
v 0.5642318929759794 0.2267057705908077 0.7076673972508355
v -0.5642318929759794 0.24073277253387942 -0.7076673972508355
v -1.6918498271647897 0.22222391207318776 1.3488186846044514
v 0.00204912618968302 3.2621569694265236 0.028380236909707365
v 1.1438161143971255 2.0617433062220387 1.4502904735916886
v -1.1413231099586014 2.09014798587526 -1.415762557771525
v -3.871995166393178 3.6672422248635166 3.1212179443017654
v 3.8766772265692118 3.7198909725777685 -3.0563717783163002
vn -0.7044942173177298 0.42824390941742807 0.5659460877503274
vn -0.623384192903934 0.012394017025951437 -0.7818174357881181
vn -0.7819075081239709 -0.005312706110142027 0.6233717908797349
vn -0.6233940621462111 0.007748899532226548 -0.7818694031667588
vn -0.8454854415523019 -0.26086036535377505 -0.4659466231181731
vn -0.5726929157245734 0.4011363589039202 -0.7149212973129397
vn -0.7819075148027788 -0.005312703654043244 0.6233718501343992
vn -0.6233940554639767 0.007748902140168589 -0.7818694623739667
vn -0.6081439330064882 0.6237139164528943 0.4910620752504939
f 5//5 1//1 2//2
f 5//5 3//3 4//4
f 5//5 2//2 4//4
f 5//5 3//3 1//1
f 6//6 1//1 2//2
f 6//6 2//2 4//4
f 7//7 3//3 4//4
f 7//7 3//3 1//1
f 8//8 7//7 4//4
f 8//8 6//6 4//4
f 9//9 7//7 1//1
f 6//6 9//9 1//1
