o 
v 0.9094213977010558 0.19773278656296142 -1.5802642431382432
v 0.6368454724128185 0.241394733411041 0.36724590133840884
v -0.6368454724128185 0.27924985431074345 -0.36724590133840884
v -0.9094213977010558 0.322911801158823 1.5802642431382432
v 0.116593534753174 3.2147440457285033 -0.04991769370475116
v 1.2151672239769036 1.5668520285050773 0.6475651318135851
v -1.10931883792746 1.6359376267505046 -0.6928824585859819
v -1.5119983023974015 3.7704808134665617 2.8028849525471724
v 1.780107116941264 3.543906799824331 -2.917671537517572
vn -0.4774925458985988 0.2540134833377301 0.8411171381398299
vn -0.8667876460661157 -0.004165027316021541 -0.4986599861444352
vn -0.49849460854778604 0.034308117862012925 0.8662136249615414
vn -0.8659956939476542 0.025738092990314976 -0.4993886005955692
vn -0.973111737935734 -0.18878189800466524 -0.13196555315076594
vn -0.82060397442589 0.30347169709657157 -0.4842664514523405
vn -0.4984946662943929 0.034308114371098965 0.8662136405238022
vn -0.8659957516166111 0.02573809146701138 -0.49938858506655304
vn -0.4414654900194963 0.4296995216329812 0.7876969958182148
f 5//5 1//1 2//2
f 5//5 3//3 4//4
f 5//5 2//2 4//4
f 5//5 3//3 1//1
f 6//6 1//1 2//2
f 6//6 2//2 4//4
f 7//7 3//3 4//4
f 7//7 3//3 1//1
f 8//8 7//7 4//4
f 8//8 6//6 4//4
f 9//9 7//7 1//1
f 6//6 9//9 1//1
