o 
v 1.8970044192547053 0.2549118513191754 -0.948712454873807
v 0.13889415576854822 0.2797445180071286 0.278166365157234
v -0.13889415576854822 0.3027128213413232 -0.278166365157234
v -1.8970044192547053 0.3275454880292764 0.948712454873807
v 0.09044280806829907 3.131731574952913 0.07211076253496529
v 0.3388577010621242 1.967559322884729 0.6133950888787443
v -0.23060834699657895 2.014644345497679 -0.5270870271068326
v -3.482260867580836 3.5971843690700895 1.8752510920225967
v 3.688415933688584 3.4599067938408297 -1.710882035654404
vn -0.8319464937963199 0.3507976083321965 0.42989069467264274
vn -0.4463112114912897 0.04033178436601506 -0.8939685131059716
vn -0.8942564069326892 0.017119887886849785 0.4472274073332757
vn -0.4464227194232329 0.036911459501424694 -0.8940605491305933
vn -0.5715703499635297 -0.06878634055118445 -0.817664790233289
vn -0.4378334250188967 0.17367794904039693 -0.8821212037288643
vn -0.8942564435302522 0.017119923443143746 0.4472273327932713
vn -0.4464227192815055 0.036911463952602905 -0.894060549017593
vn -0.7566325700662385 0.5178429447000089 0.39918145792460186
f 5//5 1//1 2//2
f 5//5 3//3 4//4
f 5//5 2//2 4//4
f 5//5 3//3 1//1
f 6//6 1//1 2//2
f 6//6 2//2 4//4
f 7//7 3//3 4//4
f 7//7 3//3 1//1
f 8//8 7//7 4//4
f 8//8 6//6 4//4
f 9//9 7//7 1//1
f 6//6 9//9 1//1
