o 
v 1.5905686360127458 0.18030675971460175 -0.8921375204672392
v 0.4690479926065899 0.18789856428217097 0.8385079179556141
v -0.4690479926065899 0.27032359961551733 -0.8385079179556141
v -1.5905686360127458 0.2779154041830865 0.8921375204672392
v 0.11513572201450706 2.8257909506649193 0.06322127023581314
v 0.976552017980965 1.810474126898087 1.6545606767523648
v -0.8292827556100999 1.9691423200954008 -1.573694811051673
v -2.613520885643436 3.4295584022341754 1.6192634412867157
v 2.889846618478253 3.2606954465820928 -1.4675323927207642
vn -0.8383043257230149 0.2557347167945609 0.48150347133658133
vn -0.48842496814951997 0.02595373351649021 -0.8722198897658018
vn -0.8718619240102001 0.02675184419516246 0.48902054155715013
vn -0.4877455984582245 0.04285537273666163 -0.871933262345054
vn -0.8102493879504207 -0.26268860864897536 -0.5239185007625888
vn -0.44138511591587404 0.389747256039728 -0.8082550682036842
vn -0.8718619246242566 0.026751830346218364 0.4890205412199704
vn -0.48774559889794167 0.04285536281963086 -0.8719332625865035
vn -0.7844825385627304 0.41668240021764286 0.45930697016945476
f 5//5 1//1 2//2
f 5//5 3//3 4//4
f 5//5 2//2 4//4
f 5//5 3//3 1//1
f 6//6 1//1 2//2
f 6//6 2//2 4//4
f 7//7 3//3 4//4
f 7//7 3//3 1//1
f 8//8 7//7 4//4
f 8//8 6//6 4//4
f 9//9 7//7 1//1
f 6//6 9//9 1//1
