o 
v 1.6819881376892714 0.23136355284912463 -1.2437872353254174
v 0.2685545309610815 0.2855688417886979 0.3639650247513908
v -0.2685545309610815 0.3144073925650217 -0.3639650247513908
v -1.6819881376892714 0.368612681504595 1.2437872353254174
v 0.12102500472402611 2.968623419322373 0.016424583538120454
v 0.6299340601316841 2.021160105878586 0.756903521818075
v -0.4711395718331488 2.080279137924429 -0.7353531542357747
v -3.7981297315108202 3.4973907870881957 2.9291528188120184
v 4.073574861258001 3.176227821612403 -2.891771522657416
vn -0.6825068493355753 0.5097361724229754 0.5237875596706569
vn -0.5931878195701977 0.03697127958417207 -0.8042147285996495
vn -0.8036116094180561 0.03278709626380396 0.5942502446769107
vn -0.5934272841757023 0.031862399643425535 -0.8042566826929517
vn -0.747181953968161 -0.1256217542788895 -0.6526395075164095
vn -0.5663600632771204 0.26468399220442007 -0.7804990308399713
vn -0.8036116182136253 0.032787097692779 0.5942503036281261
vn -0.5934272841261663 0.03186240073570932 -0.8042566826862291
vn -0.559920774085748 0.7014750574101111 0.4409324877488455
f 5//5 1//1 2//2
f 5//5 3//3 4//4
f 5//5 2//2 4//4
f 5//5 3//3 1//1
f 6//6 1//1 2//2
f 6//6 2//2 4//4
f 7//7 3//3 4//4
f 7//7 3//3 1//1
f 8//8 7//7 4//4
f 8//8 6//6 4//4
f 9//9 7//7 1//1
f 6//6 9//9 1//1
