o 
v 1.7292635563883856 0.1586154548558189 -1.688907608996129
v 0.4246169067516469 0.22233432515074145 0.4352009801272393
v -0.4246169067516469 0.24239440484671557 -0.4352009801272393
v -1.7292635563883856 0.3061132751416381 1.688907608996129
v 0.0971733867308016 3.1448979301830082 -0.027685220679635674
v 0.7269591868023222 1.8013856670541724 0.6758157827116585
v -0.6211994612334633 1.833231042841614 -0.7059472975213967
v -3.7156852871355754 3.0530128372996037 3.6903271890401075
v 3.893074360973322 2.728517632670801 -3.74086629054286
vn -0.647995021639169 0.4102857493836039 0.641691624896205
vn -0.6990281306777967 -0.039153286160166695 -0.714021508734496
vn -0.7150724793680094 0.030496099497427584 0.6983847814331218
vn -0.6982546141346911 0.016493738946425147 -0.7156594275118852
vn -0.8412525296131456 -0.17525869642183062 -0.5114474915096657
vn -0.6699808621367359 0.2552058958307217 -0.6971338389256957
vn -0.7150725390812767 0.03049609710240953 0.6983847807466413
vn -0.6982546734340309 0.016493748957863177 -0.7156594283162957
vn -0.4585986347859483 0.7573345032451453 0.4648997548902311
f 5//5 1//1 2//2
f 5//5 3//3 4//4
f 5//5 2//2 4//4
f 5//5 3//3 1//1
f 6//6 1//1 2//2
f 6//6 2//2 4//4
f 7//7 3//3 4//4
f 7//7 3//3 1//1
f 8//8 7//7 4//4
f 8//8 6//6 4//4
f 9//9 7//7 1//1
f 6//6 9//9 1//1
