o 
v 1.4771102197663482 0.21038969195065718 -1.1388211804148178
v 0.4311713730567538 0.27344634425387976 0.5602479954844866
v -0.4311713730567538 0.3026648734412665 -0.5602479954844866
v -1.4771102197663482 0.36572152574448913 1.1388211804148178
v 0.13279762101195838 3.1991953400192243 -0.026290003904001977
v 0.974672969737389 1.892970950272175 1.1547486169131793
v -0.8254675950139709 1.953964632737341 -1.1842868710933767
v -2.4697688305656182 3.9225227412856625 1.9955279069509464
v 2.7887435144511645 3.6460320790965652 -2.0586754665286415
vn -0.7520099871750091 0.3006492487855966 0.5865927517715182
vn -0.609092674565809 0.034236625806106154 -0.7923597214726702
vn -0.7912686312294098 0.04160462209134422 0.6100516161968844
vn -0.609768392964521 0.020660621604360205 -0.7923102999632434
vn -0.839518934105985 -0.18782437529332557 -0.5098332860260713
vn -0.5710812746635955 0.3062925744530653 -0.7616107740817345
vn -0.7912686312679169 0.041604621247204855 0.6100516162045078
vn -0.6097683928848417 0.020660623351061128 -0.7923102999790177
vn -0.713066169001054 0.4221059789327355 0.5597884858652676
f 5//5 1//1 2//2
f 5//5 3//3 4//4
f 5//5 2//2 4//4
f 5//5 3//3 1//1
f 6//6 1//1 2//2
f 6//6 2//2 4//4
f 7//7 3//3 4//4
f 7//7 3//3 1//1
f 8//8 7//7 4//4
f 8//8 6//6 4//4
f 9//9 7//7 1//1
f 6//6 9//9 1//1
