o 
v 1.5003318175575446 0.3906214972689892 -1.4148852974574757
v 0.4745332764364491 0.3088532939047464 0.5046072280353318
v -0.4745332764364491 0.26936994749114723 -0.5046072280353318
v -1.5003318175575446 0.18760174412690442 1.4148852974574757
v -0.1612243137178265 3.19868890136406 0.0377845915111707
v 0.9563016158053689 2.2366137953813663 1.1537758217446599
v -1.1672347327521788 2.1482698104224993 -1.104341456193802
v -3.1156007360350575 2.7038890309030488 2.835441902823708
v 2.825713104689763 3.105868131515351 -2.7675037272350487
vn -0.6812204900785528 0.37995872621499155 0.6257555432905967
vn -0.6862760200658383 0.005592970413334284 -0.7273197400838372
vn -0.726640244102588 -0.04916323167576859 0.6852568117670803
vn -0.6847871130791433 -0.028488714719173233 -0.7281860810712053
vn -0.8466818321406463 -0.2611581237965181 -0.4636014260065089
vn -0.6611511556625878 0.32116105733484906 -0.6780373628095238
vn -0.7266403036725159 -0.04916323345587369 0.6852568099771312
vn -0.6847871131123635 -0.028488714119657456 -0.7281860810634198
vn -0.608910262452864 0.5713440960954465 0.550267372397494
f 5//5 1//1 2//2
f 5//5 3//3 4//4
f 5//5 2//2 4//4
f 5//5 3//3 1//1
f 6//6 1//1 2//2
f 6//6 2//2 4//4
f 7//7 3//3 4//4
f 7//7 3//3 1//1
f 8//8 7//7 4//4
f 8//8 6//6 4//4
f 9//9 7//7 1//1
f 6//6 9//9 1//1
