o 
v 1.8659209946360968 0.23068734838585345 -1.3757676514591535
v 0.3770114258664851 0.28030155218009184 0.5123230803408118
v -0.3770114258664851 0.31966776401461544 -0.5123230803408118
v -1.8659209946360968 0.3692819678088538 1.3757676514591535
v 0.12538204212349335 3.254391865431734 0.02123942473646855
v 0.7663435153881581 1.886427245776499 0.9594645213005797
v -0.6285987653115328 1.9592547379310798 -0.9361308827463871
v -3.5724124032746327 3.314529188855407 2.744705337689396
v 3.8166348277135067 3.0401118389726216 -2.703334630090629
vn -0.7343482862531259 0.39022539659987 0.5553888809898988
vn -0.5931710116432284 0.010110262591154336 -0.8050130099061703
vn -0.8045154737533204 0.029878419223846493 0.5931796509722943
vn -0.5924162984025461 0.030929017945488326 -0.8050381204024508
vn -0.7764373596154325 -0.16607207385447237 -0.6079186326785698
vn -0.5594154604384943 0.29738951671255665 -0.7737013911265027
vn -0.8045154739058251 0.029878415630343273 0.5931796509464604
vn -0.5924163073171101 0.030929018484339547 -0.8050380614677874
vn -0.6052640787482025 0.6423975652635248 0.4700858928949416
f 5//5 1//1 2//2
f 5//5 3//3 4//4
f 5//5 2//2 4//4
f 5//5 3//3 1//1
f 6//6 1//1 2//2
f 6//6 2//2 4//4
f 7//7 3//3 4//4
f 7//7 3//3 1//1
f 8//8 7//7 4//4
f 8//8 6//6 4//4
f 9//9 7//7 1//1
f 6//6 9//9 1//1
