o 
v 1.9681490152319312 0.21011059360509185 -0.9647075735389186
v 0.46643866424848757 0.21282445074169742 0.9522844350749908
v -0.46643866424848757 0.2613765756382342 -0.9522844350749908
v -1.9681490152319312 0.26409043277483973 0.9647075735389186
v 0.058553292627310786 3.007592959262297 0.04194663543957694
v 0.9528263466367055 1.6848037458031615 1.9034066823514997
v -0.8896064364555634 1.7806941955606828 -1.8581169572839418
v -3.7560943857978373 3.228467936077682 1.916030760623363
v 3.880323950725616 3.123747045929566 -1.8270347018703454
vn -0.8262512408107383 0.3815165878587298 0.41443210775386286
vn -0.4398853655205239 0.016676021714763428 -0.8978990703593658
vn -0.8978655626577057 0.01231272605321752 0.44009757808429
vn -0.4397625825647148 0.02288768633101375 -0.897822360248331
vn -0.7508999524027831 -0.301056079376361 -0.5878048374688419
vn -0.38145686830555464 0.47737189738653535 -0.7915849579741843
vn -0.8978655060690788 0.012312734591930496 0.4400975975276892
vn -0.4397625826570072 0.022887681964130737 -0.8978223603144477
vn -0.7231394109434965 0.5838204219917288 0.36908409817817767
f 5//5 1//1 2//2
f 5//5 3//3 4//4
f 5//5 2//2 4//4
f 5//5 3//3 1//1
f 6//6 1//1 2//2
f 6//6 2//2 4//4
f 7//7 3//3 4//4
f 7//7 3//3 1//1
f 8//8 7//7 4//4
f 8//8 6//6 4//4
f 9//9 7//7 1//1
f 6//6 9//9 1//1
