o 
v 0.8531491175359127 0.34707145798908684 -1.7386816109908692
v 0.5576651159597558 0.32195284494851745 0.27453926164729436
v -0.5576651159597558 0.26406301649537384 -0.27453926164729436
v -0.8531491175359127 0.23894440345480444 1.7386816109908692
v -0.13822603057041805 2.8463860607289275 0.01157038299947598
v 1.1244241310902772 1.9907322199218798 0.6045307041454206
v -1.3014191799927821 1.8648218400955234 -0.5897151119131769
v -1.903552639009233 3.0379668586666733 3.5772380844582914
v 1.5943587948531985 3.259627323754954 -3.5513566265071197
vn -0.42292426916355874 0.3899666791479399 0.8179615482999022
vn -0.89730281810582 -0.020585177160103572 -0.44093525224509217
vn -0.4403412508246219 -0.02790415463615712 0.8973967387659191
vn -0.8962017737629497 -0.04651624085281202 -0.44120129851636175
vn -0.9502306537626712 -0.27683079969973123 -0.1429210208049297
vn -0.8645643852546663 0.2827341717441433 -0.4154393370031154
vn -0.44034125059378343 -0.027904158900317354 0.8973967387465964
vn -0.896201773640771 -0.046516243109758 -0.4412012985265889
vn -0.39015665636023744 0.5560395046832367 0.7338922674776063
f 5//5 1//1 2//2
f 5//5 3//3 4//4
f 5//5 2//2 4//4
f 5//5 3//3 1//1
f 6//6 1//1 2//2
f 6//6 2//2 4//4
f 7//7 3//3 4//4
f 7//7 3//3 1//1
f 8//8 7//7 4//4
f 8//8 6//6 4//4
f 9//9 7//7 1//1
f 6//6 9//9 1//1
