o 
v 1.6862396761329597 0.21181212439186567 -1.4639002773504823
v 0.46318323909147097 0.2802395974131871 0.5341615094750088
v -0.46318323909147097 0.3032846680456078 -0.5341615094750088
v -1.6862396761329597 0.3717121410669292 1.4639002773504823
v 0.11473123419876613 3.332266596537674 -0.03389848256872169
v 0.9963142715017388 2.1224108648751248 1.0476562487448795
v -0.8564186848641449 2.168501006139966 -1.0889897891551557
v -3.286029773112451 3.1903431187518754 2.91191500744467
v 3.4926537223975473 2.86894408535564 -2.9729641052952758
vn -0.6769964453544018 0.4313360786612926 0.5963430272714129
vn -0.6550400073765257 0.01629532543822497 -0.7554184382688058
vn -0.7546528208272221 0.03578050034704611 0.6551479539645146
vn -0.6550400667906369 0.01629532763305695 -0.7554184424948909
vn -0.8401808510280451 -0.19043313302050469 -0.507770941677658
vn -0.6102034442344714 0.3287091087843135 -0.7208343153530535
vn -0.7546528250255883 0.03578050116828484 0.6551480134154437
vn -0.6550400073765257 0.01629532543822497 -0.7554184382688058
vn -0.5585332891923295 0.6628897764624119 0.4986158574922515
f 5//5 1//1 2//2
f 5//5 3//3 4//4
f 5//5 2//2 4//4
f 5//5 3//3 1//1
f 6//6 1//1 2//2
f 6//6 2//2 4//4
f 7//7 3//3 4//4
f 7//7 3//3 1//1
f 8//8 7//7 4//4
f 8//8 6//6 4//4
f 9//9 7//7 1//1
f 6//6 9//9 1//1
