o 
v 1.9560842854203648 0.2511037604861508 -1.0197339473667628
v 0.21537511794560427 0.26710623266358885 0.41367987125194605
v -0.21537511794560427 0.3007240850685004 -0.41367987125194605
v -1.9560842854203648 0.31672655724593846 1.0197339473667628
v 0.08778851097510197 3.2245370648372407 0.07377984239091614
v 0.43772148702414415 1.5684853521945528 0.7983176199053518
v -0.35916638907791554 1.6306783744377922 -0.7322977879125357
v -4.081739406314387 3.1916463521217078 2.2432344660468653
v 4.251179757199487 3.051869793218088 -2.100832205840974
vn -0.7963059843259704 0.4236150428981543 0.4317951690752326
vn -0.4619224147651573 0.019592505833411676 -0.8867038666846527
vn -0.8866413785602945 0.01487254298143888 0.4622183889260913
vn -0.4614945386865514 0.03601728528468196 -0.8864115927122498
vn -0.6320671634538577 -0.11533748910496892 -0.7662821378352145
vn -0.4413844474873575 0.2710588988254474 -0.8553986118881447
vn -0.8866413580627889 0.01487252280908793 0.46221852007792197
vn -0.4614945387651331 0.03601728265245539 -0.8864115927782921
vn -0.6466578549941913 0.6703752502543513 0.363910235184455
f 5//5 1//1 2//2
f 5//5 3//3 4//4
f 5//5 2//2 4//4
f 5//5 3//3 1//1
f 6//6 1//1 2//2
f 6//6 2//2 4//4
f 7//7 3//3 4//4
f 7//7 3//3 1//1
f 8//8 7//7 4//4
f 8//8 6//6 4//4
f 9//9 7//7 1//1
f 6//6 9//9 1//1
