o 
v 1.5932348381689774 0.23182694304334567 -1.0513995286281297
v 0.42785946303791245 0.24206976942085004 0.6491284701175561
v -0.42785946303791245 0.28975773007316574 -0.6491284701175561
v -1.5932348381689774 0.3000005564506701 1.0513995286281297
v 0.08263318734958301 2.864277094366845 0.040977918124595725
v 0.9665823890731615 1.8510962218742713 1.4133151929917749
v -0.8625167238370754 1.953029232665153 -1.3617088778246589
v -2.9725638134185077 3.0496483526324893 2.06155627393337
v 3.1454578751102398 2.918755016816809 -1.9758178565798206
vn -0.7631216246472075 0.387454259550592 0.5172277534451394
vn -0.5490998582173381 0.05586211170610899 -0.8338877475941799
vn -0.8345090353298446 0.01785408451641095 0.5507049588337579
vn -0.5500769380791481 0.03065498268088868 -0.8345511368404945
vn -0.8028427136739791 -0.2329743778937061 -0.5487864215817729
vn -0.4965427402232455 0.4088575314663593 -0.7656897478910042
vn -0.8345089768210097 0.01785408727980471 0.5507049708728032
vn -0.5500769380241113 0.030654984411499116 -0.8345511368132017
vn -0.6838044606877635 0.5571361275479265 0.47118030762331253
f 5//5 1//1 2//2
f 5//5 3//3 4//4
f 5//5 2//2 4//4
f 5//5 3//3 1//1
f 6//6 1//1 2//2
f 6//6 2//2 4//4
f 7//7 3//3 4//4
f 7//7 3//3 1//1
f 8//8 7//7 4//4
f 8//8 6//6 4//4
f 9//9 7//7 1//1
f 6//6 9//9 1//1
