o 
v 1.1504682890590616 0.2654536124306288 -1.5575440185418903
v 0.840670613656272 0.23367175859948877 0.6223677614257122
v -0.840670613656272 0.16640164334777888 -0.6223677614257122
v -1.1504682890590616 0.1346197895166388 1.5575440185418903
v -0.13512738213378225 3.13969459216767 0.0236549153121887
v 1.5372295997629362 2.0282497363455474 1.2122482159812413
v -1.6993521951003698 1.8987547671952025 -1.183867615378009
v -2.4253464272525873 3.02663931394888 3.1233052995896364
v 2.1535173491875055 3.2869986207508135 -3.07571987523313
vn -0.5768596230741583 0.2903194794660143 0.7635100182775942
vn -0.8024255848556399 -0.04878560113509566 -0.5947546791795543
vn -0.5937985350780821 -0.0337640406535947 0.8039050561869997
vn -0.803302541165669 -0.03213996533149194 -0.5947033714806282
vn -0.9301547607697136 -0.34058894054166583 -0.13715431445876372
vn -0.7495506740994776 0.386465043720303 -0.5374184755507794
vn -0.5937984755194097 -0.03376405256618776 0.803905047251596
vn -0.8033025324738564 -0.03213996239510703 -0.5947033125095131
vn -0.5232903108244616 0.5148852349859175 0.6790142715677454
f 5//5 1//1 2//2
f 5//5 3//3 4//4
f 5//5 2//2 4//4
f 5//5 3//3 1//1
f 6//6 1//1 2//2
f 6//6 2//2 4//4
f 7//7 3//3 4//4
f 7//7 3//3 1//1
f 8//8 7//7 4//4
f 8//8 6//6 4//4
f 9//9 7//7 1//1
f 6//6 9//9 1//1
