o 
v 1.5832200856724077 0.09753527158394767 -1.6912655124505336
v 0.3195221900121788 0.19575694700860233 0.299920074102242
v -0.3195221900121788 0.22053776190377292 -0.299920074102242
v -1.5832200856724077 0.3187594373284276 1.6912655124505336
v 0.1680733109351398 3.3604351216192514 -0.048829751090325696
v 0.6878031151491463 1.4731812174821473 0.5611275517726967
v -0.55034531739198 1.5211940442569913 -0.601062684915263
v -3.2748152117930367 3.4635313464675486 3.6233375364071794
v 3.596359985343261 2.983474905033175 -3.7167548146739926
vn -0.5877663039044334 0.4866663548789747 0.6462868153275143
vn -0.7291408801971336 0.022111506094808876 -0.6840063124573322
vn -0.6826253933945674 0.047691812253970484 0.7292106097705944
vn -0.7288267795649633 0.028262391707177502 -0.6841145579326705
vn -0.8423910948778772 -0.09869253166116133 -0.5297518657962484
vn -0.6960019673110268 0.2616939229807677 -0.6686535603863073
vn -0.6826253953184038 0.04769181187407642 0.7292105501965941
vn -0.7288267794773717 0.028262393349996 -0.6841145579581183
vn -0.47217879961234244 0.7028117677889792 0.5320740594443845
f 5//5 1//1 2//2
f 5//5 3//3 4//4
f 5//5 2//2 4//4
f 5//5 3//3 1//1
f 6//6 1//1 2//2
f 6//6 2//2 4//4
f 7//7 3//3 4//4
f 7//7 3//3 1//1
f 8//8 7//7 4//4
f 8//8 6//6 4//4
f 9//9 7//7 1//1
f 6//6 9//9 1//1
