o 
v 1.285128048602807 0.17831944942946193 -1.9979696786913375
v 0.7850433198661879 0.22052048500651328 0.5048555356293475
v -0.7850433198661879 0.20994819771647888 -0.5048555356293475
v -1.285128048602807 0.25214923329353023 1.9979696786913375
v 0.011496368979178434 3.371945475097854 -0.05092937356133786
v 1.341235430883688 2.0534578045705127 0.8287420320621445
v -1.3279117006872632 2.0354849172277167 -0.887766688771858
v -2.505960516815412 3.8271033924529627 3.858915209307747
v 2.531741513954795 3.682397013774313 -3.973126055921443
vn -0.5188316215477331 0.29126950068517843 0.8037261703103494
vn -0.839956209812918 -0.06171158136739788 -0.5391338115328642
vn -0.5409064110613057 0.015537379352901656 0.8409392428035929
vn -0.8410748839948436 -0.0056634328966009 -0.5408890189422817
vn -0.9464400725200088 -0.26487575644847106 -0.184640207747045
vn -0.803321040721746 0.2866784906077815 -0.5220064739157948
vn -0.5409064693857137 0.015537358282696496 0.8409392557964185
vn -0.8410748840184642 -0.00566343938240502 -0.5408890188376418
vn -0.45272664898816917 0.5546061945984759 0.6981765646346871
f 5//5 1//1 2//2
f 5//5 3//3 4//4
f 5//5 2//2 4//4
f 5//5 3//3 1//1
f 6//6 1//1 2//2
f 6//6 2//2 4//4
f 7//7 3//3 4//4
f 7//7 3//3 1//1
f 8//8 7//7 4//4
f 8//8 6//6 4//4
f 9//9 7//7 1//1
f 6//6 9//9 1//1
