o 
v 1.8390113049981478 0.2850706089344987 -1.2177478795448566
v 0.29622367284244944 0.25437427602212703 0.4480443322599541
v -0.29622367284244944 0.2192855468039589 -0.4480443322599541
v -1.8390113049981478 0.18858921389158723 1.2177478795448566
v -0.11134080264297395 3.3058864851445375 -0.04656428959627822
v 0.4326281522537877 2.120131542072913 0.7279502284929653
v -0.5671267784374537 2.060919309453322 -0.7841994455926501
v -3.7410289999176185 3.399278133469707 2.3495402800672593
v 3.5046757778659567 3.5893464878973464 -2.4483865216730223
vn -0.8124432069268637 0.248538780310586 0.5274131123555974
vn -0.5496602255601926 -0.06666990987967603 -0.8327237424944833
vn -0.8335752496239615 -0.021866242324793818 0.5519729490042083
vn -0.5512151759657848 -0.03264668130434952 -0.8337241688689849
vn -0.7163967370949827 -0.2038356645614977 -0.6672531090957449
vn -0.5488795430388135 0.14550844212599112 -0.8231393975917445
vn -0.833575250051283 -0.021866230545878315 0.5519729488254965
vn -0.5512151759875747 -0.03264668070372244 -0.8337241688780976
vn -0.7167418100573859 0.5300628769067582 0.4531164391768217
f 5//5 1//1 2//2
f 5//5 3//3 4//4
f 5//5 2//2 4//4
f 5//5 3//3 1//1
f 6//6 1//1 2//2
f 6//6 2//2 4//4
f 7//7 3//3 4//4
f 7//7 3//3 1//1
f 8//8 7//7 4//4
f 8//8 6//6 4//4
f 9//9 7//7 1//1
f 6//6 9//9 1//1
