o 
v 0.9246687269924285 0.1915255761540689 -1.6700958999410584
v 0.9270955245845632 0.1820116989323276 0.5139150262082797
v -0.9270955245845632 0.2564491661814661 -0.5139150262082797
v -0.9246687269924285 0.24693528895972483 1.6700958999410584
v 0.10994670832737774 3.1314142833245295 0.01256373805999574
v 1.770623979798303 1.9277637106664063 0.9519848245295367
v -1.636451955163675 2.0645425520040916 -0.9366528314382164
v -1.74691275800502 3.232782452916674 3.3696535446189753
v 1.9702554902110445 3.1214089312048046 -3.3441319112046757
vn -0.44993466956556394 0.3176042405284066 0.8346773771158086
vn -0.8748698282176053 -0.001612728537699908 -0.4843554732144738
vn -0.4843255588437123 0.014511327393302607 0.8747674777902232
vn -0.8740740278015842 0.03509016401253581 -0.4845237249957399
vn -0.9636930675826675 -0.26701237351393836 -0.00009231198216635983
vn -0.7857643256920532 0.43245159776359193 -0.44222178418813296
vn -0.48432554249073767 0.014511324573980577 0.8747675350716434
vn -0.8740740853243235 0.03509015893890304 -0.484523708579103
vn -0.3852185352975123 0.557605011211133 0.7353117016823435
f 5//5 1//1 2//2
f 5//5 3//3 4//4
f 5//5 2//2 4//4
f 5//5 3//3 1//1
f 6//6 1//1 2//2
f 6//6 2//2 4//4
f 7//7 3//3 4//4
f 7//7 3//3 1//1
f 8//8 7//7 4//4
f 8//8 6//6 4//4
f 9//9 7//7 1//1
f 6//6 9//9 1//1
