o 
v 1.7070261804312477 0.1740409617634902 -0.9721509719763108
v 0.4463987388811381 0.20985913909436923 0.7865233570641706
v -0.4463987388811381 0.28222316597908936 -0.7865233570641706
v -1.7070261804312477 0.31804134330996836 0.9721509719763108
v 0.14595029651226557 3.0704519475400023 0.047094394230595776
v 1.0079055471152514 2.075926390002721 1.6342822420956682
v -0.8111693824226899 2.2233681003403643 -1.570800558804478
v -3.240595534821259 3.084630163582559 1.9698126086249825
v 3.519227934729119 2.799509416765373 -1.8799051236780437
vn -0.7900761868392077 0.39745635084208136 0.46669915286954655
vn -0.492823050626795 0.04713227746196562 -0.8688520683075083
vn -0.8683811364673264 0.03662720954185028 0.49454283446467084
vn -0.4932055889827064 0.039975857420695635 -0.868993753482245
vn -0.7933471954859709 -0.22911502645448187 -0.5640093443371457
vn -0.4339015510850136 0.4267114567056916 -0.793502898167733
vn -0.8683811518807794 0.036627217122386195 0.4945428920621934
vn -0.4932056462393152 0.03997586316466001 -0.8689937692222297
vn -0.6769253157502104 0.6097744647912736 0.4122465154839815
f 5//5 1//1 2//2
f 5//5 3//3 4//4
f 5//5 2//2 4//4
f 5//5 3//3 1//1
f 6//6 1//1 2//2
f 6//6 2//2 4//4
f 7//7 3//3 4//4
f 7//7 3//3 1//1
f 8//8 7//7 4//4
f 8//8 6//6 4//4
f 9//9 7//7 1//1
f 6//6 9//9 1//1
