o 
v 1.5702336725077068 0.25554628095940224 -1.2518187632306939
v 0.5025089457536122 0.2725293884631637 0.6302745452613235
v -0.5025089457536122 0.26008097886282483 -0.6302745452613235
v -1.5702336725077068 0.2770640863665863 1.2518187632306939
v -0.0018370384852369461 3.2090322474626505 -0.027595922720238777
v 0.9098235446221469 1.8377740129681066 1.1277417522696362
v -0.9117714822605772 1.8152112693471256 -1.1570035978792763
v -3.110810594101876 3.0874841093867653 2.4523448841311195
v 3.1073148703043687 3.0448788538495855 -2.5048575149456362
vn -0.742040562822517 0.3211003602251946 0.5884474144091206
vn -0.6230097490222394 -0.04126098226246288 -0.7811250254774128
vn -0.7819175891128279 0.005357534342636459 0.6233588298299041
vn -0.6233815465386872 -0.007721363389638586 -0.7818796542652185
vn -0.8428277607145085 -0.2513670850591615 -0.4758738674129617
vn -0.5877935069020237 0.3266965339772964 -0.7401135695158705
vn -0.7819175891112795 0.0053575318623085896 0.6233588298531638
vn -0.6233815465389941 -0.0077213628978133 -0.7818796542698307
vn -0.6400687754375611 0.5793916626269568 0.5045960836479884
f 5//5 1//1 2//2
f 5//5 3//3 4//4
f 5//5 2//2 4//4
f 5//5 3//3 1//1
f 6//6 1//1 2//2
f 6//6 2//2 4//4
f 7//7 3//3 4//4
f 7//7 3//3 1//1
f 8//8 7//7 4//4
f 8//8 6//6 4//4
f 9//9 7//7 1//1
f 6//6 9//9 1//1
