o 
v 1.4744674557727113 0.2600754997333699 -1.2995316667092542
v 0.35528644919858415 0.29421879910146187 0.4031920404281138
v -0.35528644919858415 0.29977228570046144 -0.4031920404281138
v -1.4744674557727113 0.3339155850685534 1.2995316667092542
v 0.0430170571888773 2.753672151651054 -0.020987064082045738
v 0.8009611449622439 1.9021887609973354 0.8631781496371466
v -0.7445349257700625 1.9142675944808227 -0.8907072451978737
v -2.7851481124957362 3.827594757734914 2.4785433512875117
v 2.906296152978874 3.6850833958877156 -2.537648781904725
vn -0.696753473484827 0.36670197276165895 0.6164935809324359
vn -0.6605385795592151 0.028269475971723967 -0.7502597214271214
vn -0.7500762085504419 0.01878157589099306 0.6610846387151221
vn -0.6611196219440022 0.005166985164349113 -0.7502626963380156
vn -0.8211357471452926 -0.19666245619945258 -0.5357797944335203
vn -0.6351738739814646 0.25799184430791683 -0.7280070967706177
vn -0.7500762082159238 0.018781594995108924 0.6610846385519182
vn -0.6611196219305904 0.005166985930287396 -0.7502626963445589
vn -0.6550155946689321 0.48368427526421526 0.5805205238458406
f 5//5 1//1 2//2
f 5//5 3//3 4//4
f 5//5 2//2 4//4
f 5//5 3//3 1//1
f 6//6 1//1 2//2
f 6//6 2//2 4//4
f 7//7 3//3 4//4
f 7//7 3//3 1//1
f 8//8 7//7 4//4
f 8//8 6//6 4//4
f 9//9 7//7 1//1
f 6//6 9//9 1//1
