o 
v 1.8251628230186987 0.21223558515093638 -1.4761256062356451
v 0.29333276009666964 0.23578544554756709 0.3628800647939121
v -0.29333276009666964 0.25298634534088554 -0.3628800647939121
v -1.8251628230186987 0.27653620573751625 1.4761256062356451
v 0.059084929743666706 2.9008283027782356 0.015198008490605604
v 0.6549692651447064 1.9784270163619238 0.7720722329108025
v -0.5770283113667659 2.014548905461868 -0.7520240195605953
v -3.6610706792984753 3.1092343518576406 3.027311388688184
v 3.7855937539595037 2.978061083829269 -2.9952811780374304
vn -0.6791915313971654 0.4741395296213653 0.560259378239873
vn -0.6282675982580607 0.02900743424553199 -0.7774563739100003
vn -0.7774608512280927 0.013694994747545906 0.6287821862123739
vn -0.6285380970554777 0.018428592651518163 -0.7775604242078049
vn -0.7606900828646345 -0.14927599511974454 -0.6317177021286472
vn -0.6059293079785651 0.25159803352854515 -0.7546841518371512
vn -0.7774608512874737 0.013694992077799353 0.6287821861970998
vn -0.6285380970890688 0.018428591141277113 -0.7775604242164453
vn -0.5713659728587073 0.6673563532731563 0.4776782189796415
f 5//5 1//1 2//2
f 5//5 3//3 4//4
f 5//5 2//2 4//4
f 5//5 3//3 1//1
f 6//6 1//1 2//2
f 6//6 2//2 4//4
f 7//7 3//3 4//4
f 7//7 3//3 1//1
f 8//8 7//7 4//4
f 8//8 6//6 4//4
f 9//9 7//7 1//1
f 6//6 9//9 1//1
