o 
v 0.9090999793768972 0.17913419190591706 -1.5158526683672031
v 0.7513103618928577 0.1770868030666787 0.45109884517824844
v -0.7513103618928577 0.2351413917513032 -0.45109884517824844
v -0.9090999793768972 0.23309400291206483 1.5158526683672031
v 0.1071662940458837 3.1612913922716044 0.011672949433699361
v 1.4647857287419122 1.6980952596128391 0.8519186540821477
v -1.3526281644704872 1.8069476147918015 -0.8397020370198214
v -1.7633017669447786 3.279685370174203 3.134577624794173
v 1.982190217446862 3.168528157443135 -3.110735484529085
vn -0.4780853792897876 0.32239930813004636 0.8170024882176626
vn -0.857493519092725 0.008787917381880804 -0.5144196754579679
vn -0.5142645993538998 0.015262139048396241 0.8574957461903228
vn -0.8568655602641089 0.033105482032173054 -0.514475936033795
vn -0.972056446916968 -0.22133585077172438 -0.07820907944042935
vn -0.7808081043895476 0.40527964911322917 -0.47548620870233926
vn -0.5142645845794965 0.015262147530131486 0.8574958040510774
vn -0.8568655456982643 0.03310548476277185 -0.5144758781957574
vn -0.4178752603268979 0.5398489994956259 0.7307142822340575
f 5//5 1//1 2//2
f 5//5 3//3 4//4
f 5//5 2//2 4//4
f 5//5 3//3 1//1
f 6//6 1//1 2//2
f 6//6 2//2 4//4
f 7//7 3//3 4//4
f 7//7 3//3 1//1
f 8//8 7//7 4//4
f 8//8 6//6 4//4
f 9//9 7//7 1//1
f 6//6 9//9 1//1
