o 
v 1.9927672558230736 0.26816961103567705 -1.0696933310595815
v 0.287056343798754 0.21685113352080473 0.535833642664937
v -0.287056343798754 0.18332650521772173 -0.535833642664937
v -1.9927672558230736 0.13200802770284942 1.0696933310595815
v -0.10450523837546448 2.8407446993884258 -0.02662134411750303
v 0.5561001627463139 2.051910030156273 1.1538369114736735
v -0.6997713363994295 1.9785749060337183 -1.190435265901073
v -4.033941438058533 3.3039519368993018 2.063962512968799
v 3.777705884066822 3.570828629275229 -2.129235172636297
vn -0.8198156038865194 0.38124451519915004 0.4272646151889158
vn -0.4729017673365705 -0.002017189718434771 -0.8811128027773537
vn -0.8806870138066338 -0.030087746851800597 0.4727421720842062
vn -0.4720453603794636 -0.027564526218871007 -0.8811432486853138
vn -0.6595686108953965 -0.2503489545421627 -0.7087274664863699
vn -0.46403479199340714 0.25535235130815137 -0.8482138968908424
vn -0.8806869968902395 -0.03008773899910305 0.4727421149441111
vn -0.4720453033969945 -0.027564523007331598 -0.8811432314803739
vn -0.7535187922425612 0.531414516770698 0.3870503751472895
f 5//5 1//1 2//2
f 5//5 3//3 4//4
f 5//5 2//2 4//4
f 5//5 3//3 1//1
f 6//6 1//1 2//2
f 6//6 2//2 4//4
f 7//7 3//3 4//4
f 7//7 3//3 1//1
f 8//8 7//7 4//4
f 8//8 6//6 4//4
f 9//9 7//7 1//1
f 6//6 9//9 1//1
