o 
v 0.9650607434456853 0.2700266342448754 -1.8240580958464583
v 0.6114661407760775 0.23194485617753227 0.32464404186655915
v -0.6114661407760775 0.17143292489218184 -0.32464404186655915
v -0.9650607434456853 0.13335114682483873 1.8240580958464583
v -0.13751134063203374 2.7407266559081096 0.022370622706858363
v 1.2476609655831248 1.928196692950768 0.7247873681979164
v -1.4275032887421486 1.795826848784664 -0.6955302557326905
v -2.2789601597137006 3.1074330142022246 4.0216073948682896
v 1.9480059091859847 3.4067523325448716 -3.967767088768751
vn -0.43848484607266525 0.43739721876695364 0.7851208022621714
vn -0.8836405640211021 -0.012807775983909985 -0.46799066495319175
vn -0.46739790438745804 -0.03309732083546031 0.883427312455804
vn -0.8823915253523071 -0.04366162619538601 -0.4684857612025798
vn -0.9404016766435478 -0.3000361176235421 -0.16007196189453976
vn -0.8412715800007842 0.32373233996035555 -0.43296594585159864
vn -0.4673979214975329 -0.033097328308138066 0.8834272554150159
vn -0.8823915079610095 -0.04366162391526271 -0.46848570420754165
vn -0.398307813916202 0.5993531162597162 0.694353434058372
f 5//5 1//1 2//2
f 5//5 3//3 4//4
f 5//5 2//2 4//4
f 5//5 3//3 1//1
f 6//6 1//1 2//2
f 6//6 2//2 4//4
f 7//7 3//3 4//4
f 7//7 3//3 1//1
f 8//8 7//7 4//4
f 8//8 6//6 4//4
f 9//9 7//7 1//1
f 6//6 9//9 1//1
