o 
v 1.243179040469435 0.2716028096970185 -1.6823158036820594
v 0.6247147353238982 0.22513919317037423 0.4627117427007832
v -0.6247147353238982 0.17496474301732717 -0.4627117427007832
v -1.243179040469435 0.1285011264906829 1.6823158036820594
v -0.13217277820169354 3.0540375681292904 0.023711745403323582
v 1.3201843876681 1.763177843303803 1.0420567460461365
v -1.4597961134365303 1.651539694567966 -1.017010456320063
v -2.4726611839493002 2.7218814969413536 3.2016524228124714
v 2.226555468864228 2.9923436712854974 -3.1575011524994947
vn -0.5608303167430511 0.37780820440631663 0.7367023672641991
vn -0.8043719901151221 0.007779522848869914 -0.5940750037878025
vn -0.5939596642255729 -0.034185196378176824 0.8037681602259998
vn -0.803163710662014 -0.03225336134816778 -0.5948847154050325
vn -0.9185215782313353 -0.28782082371071965 -0.27106693659390724
vn -0.7508535633070212 0.3822694832932945 -0.5385990591856069
vn -0.5939596642062008 -0.03418519679647465 0.8037681602225244
vn -0.8031636516934755 -0.032253360365953714 -0.5948847242239154
vn -0.5130581321186398 0.5449925375625791 0.6631398420620562
f 5//5 1//1 2//2
f 5//5 3//3 4//4
f 5//5 2//2 4//4
f 5//5 3//3 1//1
f 6//6 1//1 2//2
f 6//6 2//2 4//4
f 7//7 3//3 4//4
f 7//7 3//3 1//1
f 8//8 7//7 4//4
f 8//8 6//6 4//4
f 9//9 7//7 1//1
f 6//6 9//9 1//1
