o 
v 1.122071686475878 0.16169681957432547 -1.9960524708806249
v 0.4553254285714804 0.2131304662663237 0.2568132697960545
v -0.4553254285714804 0.2589870082225859 -0.2568132697960545
v -1.122071686475878 0.31042065491458415 1.9960524708806249
v 0.1507259199759332 3.017628309672176 -0.018896076564031
v 0.9487028361896743 1.8403265973583154 0.47354274029487886
v -0.7701506016551438 1.9268808175305616 -0.4959273221569901
v -2.394521799470539 3.220664399923488 4.511910591242534
v 2.6996837974968155 2.88306128439871 -4.550167876254017
vn -0.40602861843472693 0.5005694376539629 0.7645724325962985
vn -0.8708135445605087 0.030564195102273366 -0.4906624695486119
vn -0.48976820024809087 0.032457889746567506 0.8712482775824606
vn -0.8701721473624073 0.04381820118569541 -0.4907957306911949
vn -0.9514663611194258 -0.1307294904872634 -0.27860638836859447
vn -0.8281040098160115 0.29525852274783715 -0.47651460232984855
vn -0.4897681983312848 0.032457925120241704 0.8712482773421562
vn -0.8701721309076975 0.0438182084925239 -0.49079567333822405
vn -0.3020080092919978 0.7395982316313563 0.6014861460566263
f 5//5 1//1 2//2
f 5//5 3//3 4//4
f 5//5 2//2 4//4
f 5//5 3//3 1//1
f 6//6 1//1 2//2
f 6//6 2//2 4//4
f 7//7 3//3 4//4
f 7//7 3//3 1//1
f 8//8 7//7 4//4
f 8//8 6//6 4//4
f 9//9 7//7 1//1
f 6//6 9//9 1//1
