o 
v 1.5349308334810339 0.10381549963237673 -1.6200910088795868
v 0.3894507788186134 0.19872037803110829 0.37000164534628
v -0.3894507788186134 0.22884452586611434 -0.37000164534628
v -1.5349308334810339 0.3237494042648459 1.6200910088795868
v 0.16339066442266312 3.2232300889258108 -0.049470317179159916
v 0.9371857974563583 1.9309617866677675 0.7713655543715653
v -0.7471888117710886 1.996105256006585 -0.8288915530456419
v -2.7855350208497236 3.40013588564943 3.061667126323032
v 3.108599398246865 2.977862787427587 -3.1594823673320382
vn -0.6099502864792674 0.43877886116616965 0.6598740614309405
vn -0.7235784277598041 0.04631022824442828 -0.6886868871909702
vn -0.6869367377994452 0.049214178528583216 0.7250489176313353
vn -0.724692856216666 0.028027618288677725 -0.6885017665431608
vn -0.8617781076011289 -0.13233153362663952 -0.4897212129075485
vn -0.6861896872110312 0.28459926419109643 -0.6694378379283167
vn -0.6869366788169681 0.049214165819487385 0.7250489162463896
vn -0.7246929156541899 0.028027622616390926 -0.688501765020439
vn -0.5346686261720516 0.6074308284534494 0.5875008493734661
f 5//5 1//1 2//2
f 5//5 3//3 4//4
f 5//5 2//2 4//4
f 5//5 3//3 1//1
f 6//6 1//1 2//2
f 6//6 2//2 4//4
f 7//7 3//3 4//4
f 7//7 3//3 1//1
f 8//8 7//7 4//4
f 8//8 6//6 4//4
f 9//9 7//7 1//1
f 6//6 9//9 1//1
