o 
v 2.069257697016865 0.29420359091407566 -1.0452824357585273
v 0.18418231713711303 0.2449152634670573 0.3659090358098548
v -0.18418231713711303 0.2055481763555048 -0.3659090358098548
v -2.069257697016865 0.15625984890848643 1.0452824357585273
v -0.14242377979980245 3.177657376773726 -0.08713164779471964
v 0.3105694773730868 1.79848852845227 0.7186179748831532
v -0.4583917085042327 1.716309732842647 -0.8090522731250154
v -4.548652747754532 3.433651446397445 2.1169970066127592
v 4.2249998755640625 3.726092179048217 -2.315000514924989
vn -0.8226690464967019 0.4118219686583013 0.39194165438238326
vn -0.44946207075796046 -0.04001661010906389 -0.8924027018846328
vn -0.8921866686273575 -0.029738105459272635 0.4506867639267539
vn -0.4490916666518717 -0.047994373647729224 -0.8921957549255454
vn -0.5855722007883415 -0.18705502716512748 -0.7887430722009356
vn -0.4492971309557948 0.16051374796513124 -0.8788443979663918
vn -0.89218666896241 -0.02973809851367991 0.4506867637217764
vn -0.4490916101036545 -0.047994370735644526 -0.8921957363065882
vn -0.7353033775819446 0.5871310840792342 0.3385351207334907
f 5//5 1//1 2//2
f 5//5 3//3 4//4
f 5//5 2//2 4//4
f 5//5 3//3 1//1
f 6//6 1//1 2//2
f 6//6 2//2 4//4
f 7//7 3//3 4//4
f 7//7 3//3 1//1
f 8//8 7//7 4//4
f 8//8 6//6 4//4
f 9//9 7//7 1//1
f 6//6 9//9 1//1
