o 
v 1.6839470660245888 0.26916794475583805 -1.6759712249696637
v 0.42896551477414585 0.25573173724856196 0.43102674232248117
v -0.42896551477414585 0.2514670732194764 -0.43102674232248117
v -1.6839470660245888 0.23803086571220036 1.6759712249696637
v -0.02135420290964596 3.253516553185571 0.006411196793231471
v 0.7639300423748242 2.1638218243167793 0.7853100978842299
v -0.7910699561141105 2.156092120727115 -0.777161850503135
v -3.1036891840305327 3.3250232683521537 3.0736522888453495
v 3.059557166041595 3.382004123819496 -3.0604024825469507
vn -0.6814146595044115 0.27865063876961516 0.6767775905718341
vn -0.7050498459545887 -0.026737804529780845 -0.7086535081080312
vn -0.7087680989984477 -0.006552752160975802 0.705411092238208
vn -0.705405614315628 -0.0035064798228425925 -0.7087951676349817
vn -0.8416492852989536 -0.19761573618920716 -0.5025678553757706
vn -0.691299054602557 0.20567549601907836 -0.6926783290543181
vn -0.7087680991597732 -0.006552749534863885 0.7054111518484327
vn -0.7054056143165389 -0.0035064796948647238 -0.7087951676347082
vn -0.6018461354632635 0.531186857719093 0.5963402521533095
f 5//5 1//1 2//2
f 5//5 3//3 4//4
f 5//5 2//2 4//4
f 5//5 3//3 1//1
f 6//6 1//1 2//2
f 6//6 2//2 4//4
f 7//7 3//3 4//4
f 7//7 3//3 1//1
f 8//8 7//7 4//4
f 8//8 6//6 4//4
f 9//9 7//7 1//1
f 6//6 9//9 1//1
