o 
v 1.6539233552128034 0.2424772265442134 -0.8948255995799101
v 0.4439611347051473 0.2111385808985658 0.8209860485270932
v -0.4439611347051473 0.19319553411780604 -0.8209860485270932
v -1.6539233552128034 0.16185688847215846 0.8948255995799101
v -0.06625461435632912 3.029958026110089 0.0049268571109431945
v 0.6818873841428288 1.904741508848862 1.3370432570887913
v -0.7609862334841222 1.8755840592480102 -1.331161270873482
v -3.6597521466702236 3.1338608101819507 1.9470318156655204
v 3.5182751171130464 3.308806941413702 -1.936511233576549
vn -0.8479915726853682 0.27080230615333517 0.4556055395545873
vn -0.47241717426937435 -0.08681867353118838 -0.8770886689289592
vn -0.8793235975533997 -0.021431278302710854 0.47574232643440073
vn -0.4756484071710808 -0.009611859740702885 -0.8795830006162559
vn -0.7767976968166195 -0.30077929180438295 -0.5532786005617235
vn -0.4563473562167445 0.32352701303324743 -0.8289013214436558
vn -0.8793235804673506 -0.021431280895067767 0.4757422693063271
vn -0.47564840711012113 -0.009611862342499769 -0.879583000620789
vn -0.724454282537252 0.5714400431408507 0.38551551292720787
f 5//5 1//1 2//2
f 5//5 3//3 4//4
f 5//5 2//2 4//4
f 5//5 3//3 1//1
f 6//6 1//1 2//2
f 6//6 2//2 4//4
f 7//7 3//3 4//4
f 7//7 3//3 1//1
f 8//8 7//7 4//4
f 8//8 6//6 4//4
f 9//9 7//7 1//1
f 6//6 9//9 1//1
