o 
v 1.7192281946140775 0.3435629020877347 -1.1655659038051842
v 0.31653071782272746 0.2772010645479323 0.4683973983795421
v -0.31653071782272746 0.23659606965081953 -0.4683973983795421
v -1.7192281946140775 0.17023423211101713 1.1655659038051842
v -0.16079922348164308 3.195299731819398 -0.018699908551764156
v 0.5200339321660963 2.290381180023529 0.918255598590614
v -0.7381756788438427 2.2096787521739047 -0.9436240713100215
v -3.8013283402967635 3.2492219593504323 2.4391372670943494
v 3.4538146577050894 3.61494545384467 -2.4795508583060815
vn -0.7870187403120159 0.3361973796498898 0.5172743512380071
vn -0.5594737314812195 -0.03731954855893933 -0.8280074803283652
vn -0.8269917597231853 -0.04168771390204971 0.5606664016371303
vn -0.5595525134914048 -0.03589008061765869 -0.8280174737430768
vn -0.7343969242145918 -0.22690469327556678 -0.6396682354921143
vn -0.556526580242446 0.2021902471956908 -0.8058519054342663
vn -0.8269917603212051 -0.04168770297399728 0.5606664015675844
vn -0.5595525248653715 -0.03589007899359199 -0.8280174152263223
vn -0.7014249489736124 0.5526836103339381 0.45004879561246286
f 5//5 1//1 2//2
f 5//5 3//3 4//4
f 5//5 2//2 4//4
f 5//5 3//3 1//1
f 6//6 1//1 2//2
f 6//6 2//2 4//4
f 7//7 3//3 4//4
f 7//7 3//3 1//1
f 8//8 7//7 4//4
f 8//8 6//6 4//4
f 9//9 7//7 1//1
f 6//6 9//9 1//1
